# xmcd
#
# Track frame offsets:
#	150
#	12041
#	21376
#	34838
#	45245
#	59108
#	69436
#	81178
#	93762
#	107091
#
# Disc length: 1575 seconds
#
# Revision: 2
# Processed by: cddbd v1.5.2PL0 Copyright (c) Steve Scherf et al.
# Submitted via: audiograbber 1.83.01
#
DISCID=7706250a
DTITLE=Various Artist - Country Classics - Hits Of 1966   
DYEAR=1999
DGENRE=Oldies
TTITLE0=Jack Greene - There Goes My Everything
TTITLE1=Harden Trio - Tippy Toeing
TTITLE2=David Houston - Almost Persuaded
TTITLE3=Kenny Price - Walking On New Grass
TTITLE4=Jeannie Steely - Don't Touch Me
TTITLE5=Jan Howland - Evil On Your Mind
TTITLE6=Wilma Burgess - Misty Blues
TTITLE7=Connie Smith - The Hurtin's All Over
TTITLE8=Nat Stuckey - Sweet Thang
TTITLE9=Warner Mack - Talkin' To The Wall
EXTD=
EXTT0=
EXTT1=
EXTT2=
EXTT3=
EXTT4=
EXTT5=
EXTT6=
EXTT7=
EXTT8=
EXTT9=
PLAYORDER=
